**ABCDEFGHIJKLMNOPQRSTUVWXYZabcdefghijklmnopqrstuvwxyz**************************
**PARASOLID !"#$%&'()*+,-./:;<=>?@[\]^_`{|}~0123456789**************************
**PART1;
MC=unknown;
MC_MODEL=unknown;
MC_ID=unknown;
OS=unknown;
OS_RELEASE=unknown;
FRU=Parasolid 34.0.176;
APPL=Onshape;
SITE=unknown;
USER=unknown;
FORMAT=text;
GUISE=transmit;
KEY=BTGapi::writeModels_.xmt;
FILE=BTGapi::writeModels_.xmt;
DATE=2022-02-08T18:57:55 (UTC);
**PART2;
SCH=SCH_3400176_34001;
USFLD_SIZE=0;
**PART3;
**END_OF_HEADER*****************************************************************
T51 : TRANSMIT FILE created by modeller version 340017623 SCH_3400176_34001_1300
6231 0 12 36 CCCI7 lattice222 0 CCCI4 mesh1006 0 I8 polyline1008 0 CCCCCCCDI5 ow
ner1040 0 CCCI16 boundary_lattice222 0 CCCI13 boundary_mesh1006 0 I17 boundary_p
olyline1008 0 CCCA16 index_map_offset0 0 1 dA9 index_map82 0 A17 node_id_index_m
ap82 0 A20 schema_embedding_map82 0 A5 child12 0 A14 lowest_node_id0 0 1 dA16 me
sh_offset_data206 0 Z1 895 2 3 0 0 0 0 0 0 0 1e3 1e-8 0 4 5 1 0 1 1 6 0 7 8 9 0
 0 10 11 12 0 0 0 0 0 0 0 81 255 1 2 884 13 1 14 0 0 0 15 70 11 CI9 list_type0 0
 1 uI10 notransmit0 0 1 lCCCDCCDI12 finger_index0 0 1 dI12 finger_block1012 0 CZ
3 0 4 T1 0 0 5 20 1 16 16 13 255 6 39 0 1 0 17 0 0 18 0 53 255 7 91 0 19 20 0 0
 -3198340863575325e-32 832667268468868e-31 -3961500832948935e-48 .1 -20451981197
089e-29 1 0 -1 -20451981197089e-29 1224646799147352e-31 30 255 8 742 0 11 21 0 0
 +-.05 -.0816025403784438 612323399573677e-32 1 -978383446392892e-31 -1224646799
147352e-31 29 255 9 741 0 12 22 0 .05 -.0816025403784439 -612323399573676e-32 19
 9 CCCCCCI5 frame230 0 CA5 owner12 0 Z10 46 0 1 18 0 23 0 V0 16 255 11 740 24 ?2
5 0 26 8 0 0 1 18 255 12 739 27 28 0 29 9 ?1 81 1 27 881 30 12 0 0 31 0 32 17 25
5 28 0 33 34 34 12 35 36 0 37 -18 29 695 38 39 12 40 22 ?1 81 1 38 851 30 29 0 0
 41 42 43 17 39 0 44 45 46 29 47 48 0 49 +18 40 402 50 51 29 52 53 ?1 29 22 699
 0 29 53 9 .032 .0598224422454948 .0675 29 53 406 0 40 54 22 .032 .06 .0675 29 5
4 131 0 52 55 53 .032 .06 .0733212111192935 18 52 129 56 57 40 58 54 ?1 29 55 24
 0 58 59 54 -.05 -.0866025403784439 612323399573677e-32 18 58 22 60 61 52 62 55
 ?1 29 59 82 0 62 63 55 .05 -.0866025403784439 0 18 62 57 64 65 58 66 59 ?1 29 6
3 315 0 66 67 59 -.032 .028 .0905096679918781 18 66 240 68 69 62 70 63 ?1 29 67
 316 0 70 71 63 .032 .028 .0905096679918781 18 70 241 72 73 66 74 67 ?1 29 71 31
8 0 74 75 67 -.032 .06 .0733212111192934 18 74 231 76 77 70 78 71 ?1 29 75 590 0
 78 79 71 -.032 .06 .0675 18 78 523 80 81 74 82 75 ?1 29 79 839 0 82 83 75 -.031
6658269466558 .06 .0675 18 82 805 84 85 78 86 79 ?1 29 83 840 0 86 87 79 -.032 .
0598224422454948 .0675 18 86 801 41 88 82 89 83 ?1 29 87 841 0 89 90 83 -.032 .0
28 .0857378247695587 18 89 802 42 91 86 92 87 ?1 29 90 842 0 92 93 87 .032 .028
 .0857378247695587 18 92 803 94 46 89 95 90 ?1 29 93 844 0 95 96 90 .03166582694
66557 .06 .0675 18 95 806 97 45 92 98 93 ?1 29 96 845 0 98 0 93 -.05 -.081602540
3784438 612323399573677e-32 18 98 800 31 34 95 0 96 ?1 81 1 31 880 30 98 0 0 97
 27 99 17 34 0 33 28 28 98 25 11 0 35 -15 255 33 828 0 28 100 0 17 25 0 101 102
 102 12 34 11 0 0 +17 35 0 103 37 37 98 28 36 0 102 +15 103 824 0 35 104 0 17 37
 0 103 35 35 12 102 105 0 25 -16 36 794 106 ?35 48 0 107 0 0 1 17 102 0 101 25 2
5 98 37 105 0 0 +15 101 737 0 25 17 0 16 105 791 108 ?102 109 110 111 0 0 1 81 1
 108 855 30 105 0 0 24 112 113 16 109 686 114 ?51 115 105 116 115 115 1 16 110 7
82 117 ?118 105 119 120 0 0 1 31 255 111 833 0 105 120 116 0 --3594858488102905e
-32 693889390390723e-31 490182233232233e-47 -1224646799147352e-31 -2504645330923
69e-46 -1 -1 0 1224646799147352e-31 .0957025318171654 31 120 834 0 110 121 111 0
 --489590109508551e-31 .06 490182233232233e-47 216840434497101e-30 -1 0 1 216840
434497101e-30 0 .0745585313442771 30 116 582 0 115 111 122 0 +-1387778780781446e
-32 .06 .0675 1 0 0 16 115 463 123 ?124 125 109 116 109 109 1 30 122 581 0 125 1
16 126 0 +-.032 .044 .0675 0 -1 0 16 125 503 127 ?128 129 115 122 0 0 1 30 126 5
79 0 129 122 130 0 +.032 .044 .0675 0 -1 0 16 129 493 131 ?132 133 125 126 0 0 1
 30 130 306 0 133 126 134 0 +-.032 .06 .2912496059530515 0 0 -1 16 133 193 135 ?
136 137 129 130 0 0 1 30 134 305 0 137 130 138 0 +.032 .06 .2912496059530515 0 0
 -1 16 137 211 139 ?140 141 133 134 0 0 1 30 138 304 0 141 134 142 0 +.032 .028
 .2912496059530515 0 0 -1 16 141 208 143 ?144 145 137 138 0 0 1 30 142 303 0 145
 138 146 0 +-.032 .028 .2912496059530515 0 0 -1 16 145 199 147 ?148 149 141 142
 0 0 1 31 146 302 0 149 142 150 0 +189729825659272e-31 .06 -3961500832948935e-48
 216840434497101e-30 -1 0 1 216840434497101e-30 0 .08 16 149 214 151 ?77 152 145
 146 0 0 1 31 150 301 0 152 146 153 0 +.032 971445146547012e-31 -396150083294893
5e-48 1 4336808689942015e-31 0 -4336808689942015e-31 1 0 .0947417542586161 16 15
2 179 154 ?155 156 149 150 0 0 1 31 153 300 0 156 150 157 0 +3198340863575325e-3
2 .028 -3961500832948935e-48 0 1 0 0 0 1 .096 16 156 202 158 ?73 159 152 153 0 0
 1 31 157 299 0 159 153 160 0 +-.032 832667268468868e-31 -3961500832948935e-48 1
 0 0 0 0 -1 .0947417542586161 16 159 196 161 ?69 162 156 157 0 0 1 30 160 9 0 16
2 157 163 0 +-.025 -.0866025403784439 306161699786838e-32 -1 -40903962394178e-29
 1224646799147352e-31 16 162 7 164 ?165 166 159 160 0 0 1 31 163 14 0 166 160 16
7 0 +3198340863575325e-32 832667268468868e-31 -3961500832948935e-48 -12246467991
47352e-31 -250464533092369e-46 -1 -1 -40903962394178e-29 1224646799147352e-31 .1
 16 166 12 168 ?65 169 162 163 0 0 1 31 167 92 0 169 163 21 0 +1734723475976805e
-32 -.0866025403784439 0 -20451981197089e-29 1 0 -1 -20451981197089e-29 0 .05 16
 169 87 170 ?171 172 166 167 0 0 1 31 21 702 0 172 167 8 0 --3594858488102905e-3
2 693889390390723e-31 .0675 0 0 1 1 0 0 .0678433828476702 16 172 700 173 ?49 26
 169 21 26 26 1 81 1 173 873 30 172 0 0 174 123 175 17 49 0 176 177 178 29 45 17
2 0 132 +16 26 706 174 ?179 11 172 21 172 172 1 81 1 174 872 30 26 0 0 180 173 1
81 17 179 0 182 81 128 82 88 26 0 124 +15 182 701 0 128 183 0 17 81 0 182 128 17
9 78 124 115 0 184 -17 128 0 182 179 81 86 184 125 0 0 +17 88 0 44 91 85 86 179
 26 0 185 -17 124 0 186 118 136 82 81 115 0 0 +15 186 266 0 124 187 0 17 118 0 1
86 51 124 95 85 110 0 178 +17 136 0 186 124 77 78 188 133 0 0 +17 77 0 186 136 5
7 74 189 149 0 188 +17 188 0 190 69 184 74 136 133 0 191 -15 190 433 0 148 192 0
 17 69 0 190 148 188 66 191 159 0 193 +17 184 0 190 188 185 78 128 125 0 136 -17
 191 0 194 189 195 74 69 159 0 0 -15 194 142 0 191 19 0 17 189 0 194 155 191 52
 77 149 0 0 -17 195 0 194 191 155 66 73 156 0 0 -17 155 0 194 195 189 70 196 152
 0 0 +17 73 0 197 144 193 70 195 156 0 198 +15 197 428 0 144 199 0 17 144 0 197
 200 73 92 198 141 0 0 +17 193 0 197 73 200 66 148 145 0 195 -17 198 0 201 196 4
7 70 144 141 0 155 -15 201 717 0 47 202 0 17 196 0 201 140 198 52 155 152 0 189
 -17 47 0 201 198 132 92 39 48 0 144 -17 132 0 201 47 140 29 177 129 0 0 +16 48
 773 203 ?39 204 36 205 0 0 1 81 1 203 858 30 48 0 0 206 117 207 16 204 788 112
 ?200 119 48 208 0 0 1 31 205 837 0 48 107 208 0 -.032 832667268468867e-31 49018
2233232233e-47 1 4336808689942015e-31 0 -4336808689942015e-31 1 0 .0901940940207
038 31 107 838 0 36 0 205 0 +-3469446951953615e-33 -.0816025403784438 2968129319
435385e-48 -978383446392892e-31 -1 37028194868875e-45 1 -978383446392892e-31 0 .
05 31 208 836 0 204 205 121 0 --3594858488102905e-32 .028 490182233232233e-47 0
 1 0 0 0 1 .0915148872928091 31 121 835 0 119 208 120 0 --.032 693889390390723e-
31 490182233232233e-47 1 0 0 0 0 -1 .0901940940207038 16 119 776 206 ?185 110 20
4 121 0 0 1 81 1 206 857 30 119 0 0 112 203 209 17 185 0 190 184 148 86 91 119 0
 128 +17 148 0 190 185 69 89 193 145 0 0 +17 91 0 44 46 88 89 185 119 0 200 -15
 44 823 0 91 104 103 17 46 0 44 39 91 92 200 204 0 47 -17 200 0 197 193 144 89 4
6 204 0 148 +14 255 104 820 210 ?100 211 44 6 212 +0 0 100 211 23 81 1 210 894 2
13 104 214 0 215 216 217 14 100 825 216 ?0 104 33 6 218 +0 0 0 104 23 14 211 555
 215 ?104 202 176 6 219 +183 183 104 202 23 53 212 831 0 104 218 219 0 --3594858
488102905e-32 693889390390723e-31 490182233232233e-47 .0957025318171654 -9783834
46392892e-31 -1 37028194868875e-45 1 -978383446392892e-31 -1224646799147352e-31
 13 23 45 0 0 0 0 0 0 10 17 14 17 1 220 ?183 0 221 6 222 +0 0 183 0 23 81 1 220
 885 213 17 223 0 0 224 225 14 183 703 224 ?187 17 182 6 219 +211 211 187 17 23
 15 221 6 0 165 17 101 50 255 222 3 0 17 226 20 0 +-.05 .00669872981077806 61232
3399573676e-32 -1224646799147352e-31 -250464533092369e-46 -1 -1 -40903962394178e
-29 1224646799147352e-31 50 226 293 0 192 227 222 0 +-.032 .0340348360091449 .29
12496059530515 1 0 0 0 0 -1 50 20 90 0 228 222 7 0 +-.025 -.0866025403784439 306
161699786838e-32 -20451981197089e-29 1 0 -1 -20451981197089e-29 0 14 228 89 229
 ?192 19 230 6 20 -0 0 192 19 23 81 1 229 889 213 228 231 0 232 233 234 14 192 2
67 233 ?199 228 190 6 226 +0 0 199 228 23 14 19 86 232 ?228 187 235 6 7 -0 0 228
 187 23 15 230 88 0 61 228 0 17 61 0 230 236 236 58 171 169 0 165 -17 236 0 230
 61 61 62 165 162 0 171 -17 171 0 235 237 237 62 61 169 0 0 +17 165 0 221 65 65
 58 236 162 0 237 +17 65 0 221 165 165 62 237 166 0 236 +17 237 0 235 171 171 58
 65 166 0 0 -15 235 85 0 171 19 194 81 1 232 888 213 19 238 0 239 229 240 14 187
 279 239 ?19 183 186 6 241 +0 0 19 183 23 81 1 239 887 213 187 180 0 224 232 242
 50 241 296 0 187 219 243 0 +-277555756156289e-31 .06 .2912496059530515 21684043
4497101e-30 -1 0 1 216840434497101e-30 0 50 219 570 0 211 212 241 0 +-1387778780
781446e-32 .044 .0675 0 0 1 1 0 0 50 243 295 0 202 241 227 0 +.032 .044 .2912496
059530515 1 4336808689942015e-31 0 -4336808689942015e-31 1 0 14 202 275 244 ?211
 199 201 6 243 -0 0 211 199 23 50 227 294 0 199 243 226 0 +-1387778780781446e-32
 .028 .2912496059530515 0 1 0 0 0 1 14 199 271 245 ?202 192 197 6 227 +0 0 202 1
92 23 81 1 245 891 213 199 246 0 233 244 247 80 7 CCCCCDI12 legal_owners0 16 1 l
CZ1 213 0 248 8001 0 0 0 0 3 5 0 0 0 FFFFTFTFFFFFFFFF2 81 1 246 868 30 199 0 245
 223 249 250 81 1 233 890 213 192 249 0 229 245 251 81 1 244 892 213 202 252 0 2
45 215 253 83 255 3 247 .615686274509804 .811764705882353 .929411764705882 81 1
 252 870 30 202 0 244 249 180 254 81 1 215 893 213 211 255 0 244 210 256 83 3 25
3 .615686274509804 .811764705882353 .929411764705882 81 1 255 877 30 211 0 215 2
57 84 258 83 3 256 .615686274509804 .811764705882353 .929411764705882 80 1 30 25
9 260 9000 0 0 0 0 3 6 0 0 0 FFTFTFTTFFFFFFFF1 81 1 257 876 30 183 0 224 114 255
 261 81 1 84 878 30 82 0 0 255 97 262 82 255 3 258 22 8 2 81 1 97 879 30 95 0 0
 84 31 263 82 3 262 22 4 0 82 3 263 22 5 0 81 1 224 886 213 183 257 0 220 239 26
4 81 1 114 875 30 109 0 0 123 257 265 82 3 261 22 7 2 81 1 123 874 30 115 0 0 17
3 114 266 82 3 265 22 14 1 82 3 266 22 13 1 83 3 264 .615686274509804 .811764705
882353 .929411764705882 79 255 9 260 BTI/DetId81 1 249 869 30 192 0 233 246 252
 267 81 1 180 871 30 187 0 239 252 174 268 82 3 254 22 5 2 82 3 268 22 6 2 82 3
 267 22 4 2 83 3 251 .615686274509804 .811764705882353 .929411764705882 81 1 223
 867 30 17 0 220 214 246 269 82 3 250 22 3 2 81 1 214 866 30 104 0 210 270 223 2
71 82 3 269 22 2 2 81 1 270 865 30 100 0 216 143 214 272 82 3 271 22 1 2 81 1 21
6 895 213 100 270 0 210 0 273 81 1 143 864 30 141 0 0 147 270 274 82 3 272 22 0
 2 81 1 147 863 30 145 0 0 131 143 275 82 3 274 22 10 1 81 1 131 862 30 129 0 0
 127 147 276 82 3 275 22 9 1 81 1 127 861 30 125 0 0 106 131 277 82 3 276 22 8 1
 81 1 106 860 30 36 0 0 117 127 278 82 3 277 22 7 1 81 1 117 859 30 110 0 0 203
 106 279 82 3 278 22 6 1 82 3 279 22 5 1 83 3 273 .615686274509804 .811764705882
353 .929411764705882 79 15 248 SDL/TYSA_COLOUR83 3 242 .615686274509804 .8117647
05882353 .929411764705882 81 1 238 380 30 19 0 232 151 280 281 83 3 240 .6156862
74509804 .811764705882353 .929411764705882 81 1 151 367 30 149 0 0 154 238 282 8
1 1 280 619 30 1 0 283 238 80 284 82 3 281 11 4 2 81 1 283 882 285 1 280 14 0 0
 286 81 1 80 620 30 78 0 0 280 50 287 82 3 284 6 0 3 81 1 50 621 30 40 0 0 80 13
9 288 82 3 287 18 0 0 81 1 139 630 30 137 0 0 50 135 289 82 3 288 18 1 0 81 1 13
5 631 30 133 0 0 139 41 290 82 3 289 18 6 1 81 1 41 850 30 86 0 0 135 38 291 82
 3 290 18 7 1 82 3 291 22 0 0 80 1 285 292 293 8038 0 0 0 0 0 0 0 0 0 TTTTTTTTTT
TTTFTF10 81 1 14 883 292 1 283 2 0 0 294 98 255 6 286 80 97 114 116 32 49 80 1 2
92 295 296 8017 0 0 0 0 0 0 0 0 0 TTTTTTTTTTTTTFTF3 84 255 6 294 Part 179 13 296
 SDL/TYSA_NAME79 14 293 SDL/TYSA_UNAME81 1 154 366 30 152 0 0 161 151 297 82 3 2
82 11 3 1 81 1 161 365 30 159 0 0 158 154 298 82 3 297 11 2 1 81 1 158 364 30 15
6 0 0 56 161 299 82 3 298 11 1 1 81 1 56 359 30 52 0 0 76 158 300 82 3 299 11 0
 1 81 1 76 358 30 74 0 0 72 56 301 82 3 300 11 3 0 81 1 72 357 30 70 0 0 68 76 3
02 82 3 301 11 2 0 81 1 68 356 30 66 0 0 231 72 303 82 3 302 11 1 0 81 1 231 103
 30 228 0 229 164 68 304 82 3 303 11 0 0 81 1 164 100 30 162 0 0 168 231 305 82
 3 304 6 2 2 81 1 168 99 30 166 0 0 170 164 306 82 3 305 6 2 1 81 1 170 98 30 16
9 0 0 60 168 307 82 3 306 6 1 1 81 1 60 97 30 58 0 0 64 170 308 82 3 307 6 0 1 8
1 1 64 96 30 62 0 0 0 60 309 82 3 308 6 1 0 82 3 309 6 0 0 83 3 234 .61568627450
9804 .811764705882353 .929411764705882 83 3 225 .615686274509804 .81176470588235
3 .929411764705882 50 218 832 0 100 0 212 0 +.025 -.0816025403784438 -3061616997
86838e-32 978383446392892e-31 1 -37028194868875e-45 -1 978383446392892e-31 0 15
 176 558 0 178 211 0 17 178 0 176 49 177 95 51 109 0 0 -17 177 0 176 178 49 40 1
32 129 0 140 -17 51 0 186 57 118 40 178 109 0 177 +17 57 0 186 77 51 52 140 137
 0 196 -17 140 0 201 132 196 40 57 137 0 0 +83 3 217 .615686274509804 .811764705
882353 .929411764705882 81 1 112 856 30 204 0 0 108 206 310 82 3 209 22 3 1 82 3
 310 22 2 1 82 3 207 22 4 1 17 85 0 44 88 45 82 118 110 0 179 -17 45 0 44 85 39
 95 49 172 0 118 -82 3 181 22 11 1 82 3 175 22 12 1 81 1 24 854 30 11 0 0 94 108
 311 82 3 113 22 1 1 81 1 94 853 30 92 0 0 42 24 312 82 3 311 22 0 1 81 1 42 852
 30 89 0 0 38 94 313 82 3 312 22 3 0 82 3 313 22 2 0 82 3 99 22 6 0 82 3 43 22 1
 0 82 3 32 22 7 0 19 18 38 0 1 0 10 6 0 S0 74 4 CI16 index_map_offset0 0 1 dCCZ2
0 16 5 0 0 27 283 14 2 216 0 0 0 0 0 0 0 0 0 0 0 0 0 0 0 80 1 13 213 314 8040 0
 0 0 0 3 5 0 0 0 TTTFFFFFFFFFFFFF2 83 3 15 .615686274509804 .811764705882353 .92
9411764705882 79 17 314 SDL/TYSA_COLOUR_21 0 
