**ABCDEFGHIJKLMNOPQRSTUVWXYZabcdefghijklmnopqrstuvwxyz**************************
**PARASOLID !"#$%&'()*+,-./:;<=>?@[\]^_`{|}~0123456789**************************
**PART1;
MC=unknown;
MC_MODEL=unknown;
MC_ID=unknown;
OS=unknown;
OS_RELEASE=unknown;
FRU=Parasolid 34.0.176;
APPL=Onshape;
SITE=unknown;
USER=unknown;
FORMAT=text;
GUISE=transmit;
KEY=BTGapi::writeModels_.xmt;
FILE=BTGapi::writeModels_.xmt;
DATE=2022-02-02T20:03:53 (UTC);
**PART2;
SCH=SCH_3400176_34001;
USFLD_SIZE=0;
**PART3;
**END_OF_HEADER*****************************************************************
T51 : TRANSMIT FILE created by modeller version 340017623 SCH_3400176_34001_1300
6231 0 12 36 CCCI7 lattice222 0 CCCI4 mesh1006 0 I8 polyline1008 0 CCCCCCCDI5 ow
ner1040 0 CCCI16 boundary_lattice222 0 CCCI13 boundary_mesh1006 0 I17 boundary_p
olyline1008 0 CCCA16 index_map_offset0 0 1 dA9 index_map82 0 A17 node_id_index_m
ap82 0 A20 schema_embedding_map82 0 A5 child12 0 A14 lowest_node_id0 0 1 dA16 me
sh_offset_data206 0 Z1 504 2 3 0 0 0 0 0 0 0 1e3 1e-8 0 4 5 1 0 1 1 6 0 7 8 9 0
 0 10 11 12 0 0 0 0 0 0 0 81 255 1 2 494 13 1 14 0 0 0 15 70 11 CI9 list_type0 0
 1 uI10 notransmit0 0 1 lCCCDCCDI12 finger_index0 0 1 dI12 finger_block1012 0 CZ
3 0 4 T1 0 0 5 20 1 16 16 13 255 6 39 0 1 0 17 0 0 18 0 53 255 7 91 0 19 20 0 21
 -3198340863575325e-32 832667268468868e-31 -3961500832948935e-48 .1 -20451981197
089e-29 1 0 -1 -20451981197089e-29 1224646799147352e-31 31 255 8 393 0 22 23 0 0
 +183697019872103e-32 -.02467 .015 -1224646799147352e-31 -250464533092369e-46 -1
 -1 0 1224646799147352e-31 .002 29 255 9 390 0 12 24 0 1634611088079235e-33 -.02
667 .015 19 9 CCCCCCI5 frame230 0 CA5 owner12 0 Z10 46 0 1 18 0 25 0 V0 16 255 1
1 87 26 ?27 0 28 29 0 0 1 18 255 12 386 30 31 0 32 9 ?1 81 1 30 482 33 12 0 0 34
 35 36 17 255 31 0 37 31 31 12 38 22 0 38 +18 32 117 39 40 12 41 24 ?1 81 1 39 2
64 33 32 0 0 42 43 44 17 40 0 45 46 47 32 48 49 0 50 +18 41 22 51 52 32 53 54 ?1
 29 24 119 0 32 54 9 -.03429 -.02667 4199313874276275e-33 29 54 24 0 41 55 24 -.
05 -.0866025403784439 612323399573677e-32 29 55 82 0 53 56 54 .05 -.086602540378
4439 0 18 53 57 57 58 41 59 55 ?1 29 56 248 0 60 61 55 -.03429 .02667 4199313874
276275e-33 18 60 202 62 63 64 65 56 ?1 29 61 250 0 65 66 56 .03429 -.02667 -4199
31387427627e-32 18 65 194 67 47 60 68 61 ?1 29 66 251 0 68 69 61 .03429 .02667 -
4199313874276275e-33 18 68 190 70 71 65 0 66 ?1 29 69 252 0 59 72 66 -.03429 .02
667 .015 18 59 188 73 74 53 75 69 ?1 29 72 253 0 75 76 69 -.03429 -.02667 .015 1
8 75 200 43 77 59 78 72 ?1 29 76 254 0 78 79 72 .03429 -.02667 .015 18 78 196 42
 80 75 64 76 ?1 29 79 255 0 64 0 76 .03429 .02667 .015 18 64 192 81 82 78 60 79
 ?1 81 1 81 259 33 64 0 0 70 62 83 17 82 0 84 85 86 64 71 87 0 88 -15 255 84 207
 0 86 89 0 17 85 0 84 63 82 59 90 91 0 0 +17 86 0 84 82 63 68 92 93 0 94 -17 71
 0 95 96 88 68 82 87 0 86 +16 87 149 97 ?71 98 99 100 0 0 1 17 88 0 95 71 80 64
 101 102 0 90 -15 95 211 0 96 103 0 17 80 0 95 88 96 78 47 99 0 101 -17 101 0 10
4 105 90 78 88 102 0 106 +16 102 152 107 ?101 108 91 109 0 0 1 17 90 0 104 101 1
10 64 85 91 0 0 -15 104 223 0 105 111 0 17 110 0 104 90 77 59 112 113 0 85 -16 9
1 172 114 ?85 102 115 116 0 0 1 81 1 114 274 33 91 0 0 117 107 118 16 115 164 11
9 ?120 91 49 121 0 0 1 30 255 116 247 0 91 122 109 0 +183697019872103e-32 .02667
 .015 -1 1011795553208986e-31 1224646799147352e-31 38 12 CCCCCCCCCCCA17 intersec
tion_data204 0 Z122 344 0 123 124 116 0 +7 125 126 127 127 128 30 109 246 0 102
 116 129 0 +.03429 -3469446951953615e-33 .015 -2601759993965965e-31 -1 569088237
968375e-46 30 129 245 0 130 109 131 0 +-1204081760909342e-32 -.02667 .015 -1 101
1795553208986e-31 1224646799147352e-31 16 130 158 132 ?105 113 108 129 108 108 1
 30 131 244 0 113 129 133 0 +-.03429 693889390390723e-32 .015 -2601759993965965e
-31 -1 569088237968375e-46 16 113 175 134 ?112 135 130 131 0 0 1 30 133 243 0 93
 131 136 0 +-206473635750053e-64 .02667 -1685985182779295e-49 -1 101179555320898
6e-31 1224646799147352e-31 16 93 144 137 ?92 138 123 133 0 0 1 30 136 242 0 138
 133 139 0 +.03429 -3469446951953615e-33 -4199313874276275e-33 -2601759993965965
e-31 -1 569088237968375e-46 16 138 178 140 ?96 49 93 136 0 0 1 30 139 241 0 49 1
36 121 0 +-1387778780781446e-32 -.02667 286691814304538e-47 -1 1011795553208986e
-31 1224646799147352e-31 16 49 183 141 ?40 115 138 139 0 0 1 30 121 240 0 115 13
9 142 0 +-.03429 693889390390723e-32 4199313874276275e-33 -2601759993965965e-31
 -1 569088237968375e-46 30 142 239 0 135 121 143 0 +-.03429 .02667 .015 -1224646
799147352e-31 -250464533092369e-46 -1 16 135 169 144 ?63 145 113 142 0 0 1 30 14
3 238 0 145 142 146 0 +-.03429 -.02667 .015 -1224646799147352e-31 -2504645330923
69e-46 -1 16 145 161 117 ?50 99 135 143 0 0 1 30 146 237 0 99 143 100 0 +.03429
 -.02667 .015 -1224646799147352e-31 -250464533092369e-46 -1 16 99 155 147 ?47 87
 145 146 0 0 1 30 100 236 0 87 146 148 0 +.03429 .02667 .015 -1224646799147352e-
31 -250464533092369e-46 -1 30 148 9 0 98 100 149 0 +-.025 -.0866025403784439 306
161699786838e-32 -1 -40903962394178e-29 1224646799147352e-31 16 98 7 150 ?151 28
 87 148 0 0 1 31 149 14 0 28 148 29 0 +3198340863575325e-32 832667268468868e-31
 -3961500832948935e-48 -1224646799147352e-31 -250464533092369e-46 -1 -1 -4090396
2394178e-29 1224646799147352e-31 .1 16 28 12 152 ?58 11 98 149 0 0 1 31 29 92 0
 11 149 23 0 +1734723475976805e-32 -.0866025403784439 0 -20451981197089e-29 1 0
 -1 -20451981197089e-29 0 .05 31 23 289 0 153 29 8 0 +0 .02667 .0057584167992375
9 -1011795553208986e-31 -1 37437375165526e-45 1 -1011795553208986e-31 0 .0025 16
 153 307 154 ?155 123 156 23 0 0 1 81 1 154 349 33 153 0 0 157 158 159 17 155 0
 160 155 155 0 161 153 0 0 +16 123 304 157 ?162 93 153 122 0 0 1 16 156 420 163
 ?164 153 22 124 0 0 1 81 1 163 484 33 156 0 0 35 141 165 17 164 0 166 164 164 0
 167 156 0 0 +16 22 423 35 ?31 156 0 8 0 0 1 38 124 464 0 156 0 122 0 +7 168 169
 170 170 171 51 255 168 461 0 172 0 125 173 +367394039744206e-31 -.02467 .3 -122
4646799147352e-31 -250464533092369e-46 -1 .002 -1 0 1224646799147352e-31 40 255
 20 169 0 1 20 .0001228800961107698 .3486709016225495 ??-.001358849061883796 -.0
2613749079282205 .0965141704843499 -.00177285113657452 -.0255957423224345 .09665
25476840165 -.00197991779632704 -.0249527110181571 .096816538558059 -.0019588803
342407 -.0242665302537674 .0969912279398458 -.001702310439732055 -.0236201718394
0455 .0971554919777764 -.001241275052619542 -.0231018047813667 .097287028179955
 -.000642347387996694 -.0227759593897876 .0973696208460723 1468723994092842e-20
 -.02267005392948135 .0973964498281092 .00065770702140775 -.02278123811082735 .0
973682833966573 .00122727912908357 -.0230908274510631 .0972898117665182 .0016709
72727364375 -.02357097764153565 .0971679827060675 .0019393440498771 -.0241811803
43883 .0970129345078934 .001990844064560035 -.0248611541540384 .0968398655205579
 .0018059029245472 -.0255294850941767 .0966694579764122 .001402296378501356 -.02
609603115914135 .0965247674050964 .000837334355965259 -.0264862794873918 .096424
9753440056 .0001898400562149875 -.02666096980214575 .0963802710618834 -.00046410
5203799857 -.02661540647675645 .0963919329842328 -.001061794685439004 -.02636487
2280136 .0964560319611899 -.001358849061883798 -.02613749079282205 .096514170484
3499 41 3 CI8 term_use0 0 1 cCZ1 170 H?-.001358849061883798 -.02613749079282205
 .0965141704843499 204 2 17 INTERSECTION_DATA17 Intersection data7 uv_type0 0 1
 u6 values0 1 1 fT80 171 4 1.55671798700905 -.264446353476674 5.4593670401328 .2
0348582951565 1.55245586505731 -.258837989443121 5.80195380507024 .2033474523159
835 1.550348974644145 -.252191887408912 6.14135476793442 .203183461441941 1.5506
02603091215 -.24511233386957 .203128889276 .203008772060154 1.553276614503995 -.
2384550949280965 .552614165143951 .2028445080222235 1.558038123291965 -.23312390
53047745 .901240814883739 .202712971820045 1.56419942250122 -.229776182139954 1.
243827744905938 .2026303791539275 1.570947125308145 -.228688679611186 1.57814001
2772335 .202603550171891 1.577551062479735 -.2298303945277865 1.905885633466265
 .2026317166033425 1.583410330399725 -.233011081528338 2.231458164807115 .202710
188233482 1.587991373890485 -.237948858758074 2.559813601673815 .202832017293932
5 1.59078423651191 -.2442326344023655 2.894681638256325 .2029870654921065 1.5913
5153572389 -.2512465262939435 3.237315847803075 .203160134479442 1.5894753690380
8 -.258152647134887 3.58580028741842 .203330542023588 1.58532314486797 -.2640168
505800085 3.935382427645475 .2034752325949035 1.579479899765795 -.26806163279956
 4.2804117974696 .2035750246559945 1.57276602254918 -.2698736872628985 4.6173258
359978 .2036197289381165 1.56598159175244 -.269400973714792 4.94657633754491 .20
3608067015767 1.559788702093825 -.2668028129042175 5.27204808619716 .20354396803
881 1.55671798700905 -.264446353476674 5.45936704013281 .20348582951565 14 255 1
72 446 174 ?0 175 37 6 168 -0 0 0 175 25 51 125 341 0 175 168 176 177 +0 .291249
6059530515 .00575841679923759 0 -1 0 .0025 0 0 -1 141 255 173 124 173 173 168 14
 175 326 178 ?172 111 160 6 125 -0 0 172 111 25 50 255 176 235 0 111 125 179 0 +
2959254581434995e-32 .00669872981077811 .015 -1224646799147352e-31 -250464533092
369e-46 -1 1 -306730588751506e-62 -1224646799147352e-31 141 177 122 177 177 125
 14 111 220 180 ?175 181 104 6 176 +0 0 175 181 25 50 179 233 0 181 176 182 0 +-
.03429 693889390390723e-32 .015 1 -2601759993965965e-31 -1224646799147352e-31 26
01759993965965e-31 1 0 14 181 216 183 ?111 184 185 6 179 +0 0 111 184 25 50 182
 232 0 184 179 186 0 +-1204081760909342e-32 -.02667 .015 -1011795553208986e-31 -
1 37437375165526e-45 1 -1011795553208986e-31 0 14 184 212 187 ?181 103 45 6 182
 -0 0 181 103 25 50 186 231 0 103 182 188 0 +.03429 -3469446951953615e-33 .015 1
 -2601759993965965e-31 -1224646799147352e-31 2601759993965965e-31 1 0 14 103 208
 189 ?184 89 95 6 186 -0 0 184 89 25 50 188 230 0 89 186 190 0 +183697019872103e
-32 .02667 .015 -1011795553208986e-31 -1 37437375165526e-45 1 -1011795553208986e
-31 0 14 89 204 191 ?103 19 192 6 188 +0 0 103 19 25 50 190 3 0 17 188 20 0 +-.0
5 .00669872981077806 612323399573676e-32 -1224646799147352e-31 -250464533092369e
-46 -1 -1 -40903962394178e-29 1224646799147352e-31 14 17 1 193 ?194 0 195 6 190
 +0 0 194 0 25 50 20 90 0 194 190 7 0 +-.025 -.0866025403784439 306161699786838e
-32 -20451981197089e-29 1 0 -1 -20451981197089e-29 0 14 194 89 196 ?19 17 197 6
 20 -0 0 19 17 25 81 1 196 496 198 194 199 0 193 200 201 14 19 86 200 ?89 194 16
6 6 7 -0 0 89 194 25 15 197 88 0 52 194 0 13 25 45 0 0 0 0 0 0 10 17 17 52 0 197
 202 202 41 27 11 0 151 -17 202 0 197 52 52 53 151 98 0 27 -17 27 0 203 204 204
 53 52 11 0 0 +17 151 0 195 58 58 41 202 98 0 204 +15 195 6 0 151 17 205 17 58 0
 195 151 151 53 204 28 0 202 +17 204 0 203 27 27 41 58 28 0 0 -15 203 85 0 27 19
 0 15 205 115 0 94 17 0 17 94 0 205 92 48 68 96 138 0 0 -17 92 0 205 120 94 60 8
6 93 0 0 +17 48 0 205 94 120 65 40 49 0 0 -17 96 0 95 80 71 65 94 138 0 48 +17 1
20 0 205 48 92 32 206 115 0 0 +17 206 0 185 74 50 60 120 115 0 92 -15 185 219 0
 206 181 0 17 74 0 185 112 206 59 63 135 0 110 -17 50 0 185 206 112 32 46 145 0
 120 +17 112 0 185 50 74 75 110 113 0 0 +17 46 0 45 207 40 75 50 145 0 112 -15 4
5 215 0 207 184 0 17 207 0 45 106 46 12 77 108 0 105 -17 106 0 45 47 207 78 105
 130 0 0 -17 77 0 104 110 38 75 207 108 0 46 +16 108 387 208 ?77 130 102 129 130
 130 1 17 105 0 104 38 101 12 106 130 0 0 +17 38 0 104 77 105 12 31 22 0 207 -81
 1 208 491 33 108 0 0 132 0 209 80 7 CCCCCDI12 legal_owners0 16 1 lCZ1 33 210 21
1 9000 0 0 0 0 3 6 0 0 0 FFTFTFTTFFFFFFFF1 81 1 132 490 33 130 0 0 212 208 213 8
2 255 3 209 19 4 1 81 1 212 489 33 19 0 200 214 132 215 82 3 213 19 3 1 81 1 200
 497 198 19 212 0 196 191 216 81 1 214 488 33 184 0 187 217 212 218 82 3 215 19
 3 2 81 1 187 500 198 184 214 0 189 183 219 81 1 217 487 33 111 0 180 220 214 22
1 82 3 218 19 2 2 81 1 180 502 198 111 217 0 183 178 222 81 1 220 486 33 172 0 1
74 141 217 223 82 3 221 19 1 2 81 1 174 504 198 172 220 0 178 0 224 81 1 141 485
 33 49 0 0 163 220 225 82 3 223 19 0 2 82 3 225 19 2 1 80 1 198 0 226 8001 0 0 0
 0 3 5 0 0 0 FFFFTFTFFFFFFFFF2 81 1 178 503 198 175 158 0 180 174 227 83 255 3 2
24 .615686274509804 .811764705882353 .929411764705882 81 1 158 350 33 175 0 178
 154 34 228 83 3 227 .615686274509804 .811764705882353 .929411764705882 81 1 34
 352 33 89 0 191 158 30 229 82 3 228 14 0 2 81 1 191 498 198 89 34 0 200 189 230
 82 3 229 14 2 2 81 1 189 499 198 103 231 0 191 187 232 83 3 230 .61568627450980
4 .811764705882353 .929411764705882 81 1 231 281 33 103 0 189 134 233 234 83 3 2
32 .615686274509804 .811764705882353 .929411764705882 81 1 134 277 33 113 0 0 10
7 231 235 81 1 233 282 33 181 0 183 231 236 237 82 3 234 10 3 2 81 1 183 501 198
 181 233 0 187 180 238 81 1 236 283 33 17 0 193 233 157 239 82 3 237 10 4 2 81 1
 193 495 198 17 236 0 0 196 240 81 1 157 348 33 123 0 0 236 154 241 82 3 239 10
 5 2 82 3 241 14 0 1 83 3 240 .615686274509804 .811764705882353 .929411764705882
 83 3 238 .615686274509804 .811764705882353 .929411764705882 81 1 107 276 33 102
 0 0 114 134 242 82 3 235 10 11 1 82 3 242 10 10 1 79 255 15 226 SDL/TYSA_COLOUR
83 3 222 .615686274509804 .811764705882353 .929411764705882 83 3 219 .6156862745
09804 .811764705882353 .929411764705882 83 3 216 .615686274509804 .8117647058823
53 .929411764705882 79 9 211 BTI/DetId17 47 0 45 40 106 65 80 99 0 96 +17 63 0 8
4 86 85 60 74 135 0 206 +15 166 408 0 164 19 243 15 243 294 0 162 19 203 17 162
 0 243 162 162 0 244 123 0 0 +17 244 0 245 244 244 0 162 123 0 0 -15 245 320 0 2
44 175 0 81 1 199 103 33 194 0 196 150 246 247 83 3 201 .615686274509804 .811764
705882353 .929411764705882 81 1 150 100 33 98 0 0 152 199 248 81 1 246 104 33 1
 0 249 199 70 250 82 3 247 6 2 2 81 1 249 492 251 1 246 14 0 0 252 81 1 70 258 3
3 68 0 0 246 81 253 82 3 250 6 0 3 82 3 253 10 0 0 80 1 251 254 255 8038 0 0 0 0
 0 0 0 0 0 TTTTTTTTTTTTTFTF10 81 1 14 493 254 1 249 2 0 0 256 98 255 6 252 80 97
 114 116 32 49 80 1 254 257 258 8017 0 0 0 0 0 0 0 0 0 TTTTTTTTTTTTTFTF3 84 255
 6 256 Part 179 13 258 SDL/TYSA_NAME79 14 255 SDL/TYSA_UNAME81 1 152 99 33 28 0
 0 26 150 259 82 3 248 6 2 1 81 1 26 98 33 11 0 0 51 152 260 82 3 259 6 1 1 81 1
 51 97 33 41 0 0 57 26 261 82 3 260 6 0 1 81 1 57 96 33 53 0 0 0 51 262 82 3 261
 6 1 0 82 3 262 6 0 0 15 192 288 0 161 89 84 17 161 0 192 161 161 0 155 153 0 0
 -15 160 319 0 155 175 245 15 37 440 0 31 172 263 15 263 441 0 167 172 0 17 167
 0 263 167 167 0 164 156 0 0 -81 1 35 483 33 22 0 0 30 163 264 82 3 264 19 0 1 8
2 3 165 19 1 1 82 3 159 14 1 1 81 1 147 272 33 99 0 0 144 117 265 81 1 144 271 3
3 135 0 0 97 147 266 81 1 117 273 33 145 0 0 147 114 267 82 3 265 10 6 1 82 3 26
7 10 7 1 81 1 97 270 33 87 0 0 119 144 268 82 3 266 10 5 1 81 1 119 269 33 115 0
 0 140 97 269 82 3 268 10 4 1 81 1 140 268 33 138 0 0 137 119 270 82 3 269 10 3
 1 81 1 137 266 33 93 0 0 43 140 271 82 3 270 10 2 1 81 1 43 265 33 75 0 0 39 13
7 272 82 3 271 10 0 1 82 3 272 10 7 0 40 20 126 0 1 20 .0001415531022391678 .337
9227654281775 ??-.001787443094771165 .0999035562737821 .004010547472581655 -.001
108797336041496 .0999319567165721 .00351775429283747 -.0003049583755205735 .0999
458238492412 .003277086432438395 .000532572715223453 .0999435932032447 .00331580
215443594 .00130973198188135 .0999255486775486 .003628956272334795 .001939857098
54383 .0998937073865762 .004181408734188745 .00235227395129056 .0998515963926542
 .00491177209330723 .002499920618660065 .0998039081322105 .00573849443998253 .00
236517846172331 .0997560183817703 .00656831237534612 .001962770550995265 .099713
3792977234 .00730681331310145 .00133854767158738 .099680856885407 .0078698831453
7906 .000563867948960537 .0996621315209456 .00819399741505285 -.0002733758122332
09 .0996592755855759 .00824342498137419 -.001079186909582298 .0996725605768804 .
00801349010496098 -.00176368574411076 .0997004747420449 .00753025556053064 -.002
250331599434635 .0997399034778591 .00684745660226867 -.0024839616843793 .0997864
445721414 .00604114343493991 -.002437288912488225 .0998348588156521 .00520197924
02411 -.002114866741848975 .0998796501672453 .004425248143657555 -.0017874430947
52925 .0999035562738039 .004010547472594415 41 1 127 H?-.001787443094752925 .099
9035562738039 .004010547472594415 204 80 128 4 1.151536079589454 1.5268738422329
45 5.48659375812709 .1913460496792695 1.265453260350442 1.53390432188619 5.82366
420954002 .1913176492364795 1.478005782573072 1.53787792974261 6.16089739575547
 .1913037821038105 1.73005269512034 1.537207012889705 .214674167263717 .19130601
2749807 1.91715857865157 1.5322060268172 .551414724454077 .191324057275503 2.005
169173696935 1.52468527628364 .888208388916102 .1913558985664755 2.0174262550246
5 1.516309570985775 1.225306200564344 .1913980095603975 1.9816449471649 1.508161
51410683 1.562827298747075 .1914456978208415 1.91643088638465 1.500927750947655
 1.900706693756315 .1914935875712815 1.83322331442613 1.495065523805834 2.238721
816108835 .1915362266553285 1.739268921994525 1.490882246297206 2.57658880245122
 .1915687490676445 1.639502768930835 1.488569943051512 2.914088001795605 .191587
474432106 1.537645584061725 1.488222955910006 3.25116208549714 .191590330367476
 1.43693045657902 1.489849643897088 3.587941269774605 .1915770453761715 1.340730
057900604 1.49337864107192 3.924684793448745 .191549131211007 1.25327788277181 1
.49865627540266 4.261666560757615 .1915097024751925 1.18069437789526 1.505430971
89758 4.59905586599095 .1914631613809105 1.132639271047064 1.51331821669034 4.93
684393665063 .1914147471373995 1.124977032670662 1.521730252845115 5.27484735628
933 .1913699557858065 1.151536079594432 1.52687384223291 5.48659375812854 .19134
6049679248 82 3 118 10 8 1 81 1 62 260 33 60 0 0 81 73 273 82 3 83 10 1 0 81 1 7
3 261 33 59 0 0 62 67 274 82 3 273 10 2 0 81 1 67 262 33 65 0 0 73 42 275 82 3 2
74 10 3 0 81 1 42 263 33 78 0 0 67 39 276 82 3 275 10 4 0 82 3 276 10 5 0 82 3 4
4 10 6 0 82 3 36 19 0 0 19 18 38 0 1 0 10 6 0 S0 141 21 122 277 277 7 141 277 12
4 21 21 7 74 4 CI16 index_map_offset0 0 1 dCCZ20 16 5 0 0 208 249 14 2 174 0 0 0
 0 0 0 0 0 0 0 0 0 0 0 0 80 1 13 198 278 8040 0 0 0 0 3 5 0 0 0 TTTFFFFFFFFFFFFF
2 83 3 15 .615686274509804 .811764705882353 .929411764705882 79 17 278 SDL/TYSA_
COLOUR_21 0 
