**ABCDEFGHIJKLMNOPQRSTUVWXYZabcdefghijklmnopqrstuvwxyz**************************
**PARASOLID !"#$%&'()*+,-./:;<=>?@[\]^_`{|}~0123456789**************************
**PART1;
MC=unknown;
MC_MODEL=unknown;
MC_ID=unknown;
OS=unknown;
OS_RELEASE=unknown;
FRU=Parasolid 34.0.176;
APPL=Onshape;
SITE=unknown;
USER=unknown;
FORMAT=text;
GUISE=transmit;
KEY=BTGapi::writeModels_.xmt;
FILE=BTGapi::writeModels_.xmt;
DATE=2022-02-02T19:59:35 (UTC);
**PART2;
SCH=SCH_3400176_34001;
USFLD_SIZE=0;
**PART3;
**END_OF_HEADER*****************************************************************
T51 : TRANSMIT FILE created by modeller version 340017623 SCH_3400176_34001_1300
6231 0 12 36 CCCI7 lattice222 0 CCCI4 mesh1006 0 I8 polyline1008 0 CCCCCCCDI5 ow
ner1040 0 CCCI16 boundary_lattice222 0 CCCI13 boundary_mesh1006 0 I17 boundary_p
olyline1008 0 CCCA16 index_map_offset0 0 1 dA9 index_map82 0 A17 node_id_index_m
ap82 0 A20 schema_embedding_map82 0 A5 child12 0 A14 lowest_node_id0 0 1 dA16 me
sh_offset_data206 0 Z1 647 2 3 0 0 0 0 0 0 0 1e3 1e-8 0 4 5 1 0 1 1 6 0 7 8 9 0
 0 10 11 12 0 0 0 0 0 0 0 81 255 1 2 639 13 1 14 0 0 0 15 70 11 CI9 list_type0 0
 1 uI10 notransmit0 0 1 lCCCDCCDI12 finger_index0 0 1 dI12 finger_block1012 0 CZ
3 0 4 T1 0 0 5 20 1 16 16 13 255 6 39 0 1 0 17 0 0 18 0 53 255 7 91 0 19 20 0 0
 -3198340863575325e-32 832667268468868e-31 -3961500832948935e-48 .1 -20451981197
089e-29 1 0 -1 -20451981197089e-29 1224646799147352e-31 31 255 8 92 0 11 21 0 0
 +1734723475976805e-32 -.0866025403784439 0 -20451981197089e-29 1 0 -1 -20451981
197089e-29 0 .05 29 255 9 406 0 12 22 0 .032 .06 .0675 19 9 CCCCCCI5 frame230 0
 CA5 owner12 0 Z10 46 0 1 18 0 23 0 V0 16 255 11 87 24 ?25 0 26 8 0 0 1 18 255 1
2 402 27 28 0 29 9 ?1 81 1 27 621 30 12 0 0 31 32 33 17 255 28 0 34 35 36 12 37
 38 0 39 -18 29 129 40 41 12 42 22 ?1 81 1 40 359 30 29 0 0 43 44 45 17 41 0 46
 47 39 29 48 49 0 50 -18 42 22 51 52 29 53 54 ?1 29 22 131 0 29 54 9 .032 .06 .0
733212111192935 29 54 24 0 42 55 22 -.05 -.0866025403784439 612323399573677e-32
 29 55 82 0 53 56 54 .05 -.0866025403784439 0 18 53 57 57 58 42 59 55 ?1 29 56 3
15 0 59 60 55 -.032 .028 .0905096679918781 18 59 240 61 62 53 63 56 ?1 29 60 316
 0 63 64 56 .032 .028 .0905096679918781 18 63 241 65 66 59 67 60 ?1 29 64 318 0
 67 68 60 -.032 .06 .0733212111192934 18 67 231 43 47 63 69 64 ?1 29 68 588 0 69
 70 64 .032 .028 .0675 18 69 537 71 36 67 72 68 ?1 29 70 589 0 72 73 68 -.032 .0
28 .0675 18 72 535 32 74 69 75 70 ?1 29 73 590 0 75 0 70 -.032 .06 .0675 18 75 5
23 31 35 72 0 73 ?1 81 1 31 620 30 75 0 0 76 27 77 17 35 0 34 74 28 75 39 78 0 7
9 -15 255 34 558 0 35 80 0 17 74 0 34 36 35 72 79 81 0 82 +17 39 0 46 41 83 12 3
5 78 0 48 +16 78 463 84 ?39 81 0 85 0 0 1 17 79 0 86 87 88 75 74 81 0 83 -15 86
 433 0 79 89 0 17 87 0 86 62 79 67 83 90 0 91 -17 88 0 86 79 62 72 92 93 0 0 +16
 81 503 94 ?74 95 78 96 0 0 1 17 83 0 46 39 47 75 87 90 0 0 +15 46 266 0 83 17 0
 17 47 0 46 83 41 67 97 98 0 87 +16 90 193 99 ?83 49 38 100 0 0 1 81 1 99 631 30
 90 0 0 101 102 103 16 49 211 101 ?48 104 90 105 0 0 1 16 38 493 106 ?37 90 95 1
07 0 0 1 30 255 100 306 0 90 107 105 0 +-.032 .06 .2912496059530515 0 0 -1 30 10
7 579 0 38 108 100 0 +.032 .044 .0675 0 -1 0 30 105 305 0 49 100 109 0 +.032 .06
 .2912496059530515 0 0 -1 30 109 304 0 104 105 110 0 +.032 .028 .291249605953051
5 0 0 -1 16 104 208 111 ?112 93 49 109 0 0 1 30 110 303 0 93 109 113 0 +-.032 .0
28 .2912496059530515 0 0 -1 16 93 199 114 ?88 98 104 110 0 0 1 31 113 302 0 98 1
10 115 0 +189729825659272e-31 .06 -3961500832948935e-48 216840434497101e-30 -1 0
 1 216840434497101e-30 0 .08 16 98 214 116 ?47 117 93 113 0 0 1 31 115 301 0 117
 113 118 0 +.032 971445146547012e-31 -3961500832948935e-48 1 4336808689942015e-3
1 0 -4336808689942015e-31 1 0 .0947417542586161 16 117 179 119 ?120 121 98 115 0
 0 1 31 118 300 0 121 115 122 0 +3198340863575325e-32 .028 -3961500832948935e-48
 0 1 0 0 0 1 .096 16 121 202 44 ?66 123 117 118 0 0 1 31 122 299 0 123 118 124 0
 +-.032 832667268468868e-31 -3961500832948935e-48 1 0 0 0 0 -1 .0947417542586161
 16 123 196 125 ?62 126 121 122 0 0 1 30 124 9 0 126 122 21 0 +-.025 -.086602540
3784439 306161699786838e-32 -1 -40903962394178e-29 1224646799147352e-31 16 126 7
 127 ?128 26 123 124 0 0 1 31 21 14 0 26 124 8 0 +3198340863575325e-32 832667268
468868e-31 -3961500832948935e-48 -1224646799147352e-31 -250464533092369e-46 -1 -
1 -40903962394178e-29 1224646799147352e-31 .1 16 26 12 129 ?58 11 126 21 0 0 1 8
1 1 129 99 30 26 0 0 24 127 130 17 58 0 131 128 128 53 132 26 0 133 +15 131 6 0
 128 134 0 17 128 0 131 58 58 42 133 126 0 132 +17 132 0 135 25 25 42 58 26 0 0
 -17 133 0 136 52 52 53 128 126 0 25 -15 136 88 0 52 137 0 17 52 0 136 133 133 4
2 25 11 0 128 -17 25 0 135 132 132 53 52 11 0 0 +15 135 85 0 25 19 138 14 255 19
 86 139 ?134 17 135 6 7 -0 0 134 17 23 15 138 142 0 91 19 0 17 91 0 138 97 140 6
7 62 123 0 0 -17 97 0 138 120 91 29 47 98 0 0 -17 140 0 138 91 120 59 66 121 0 0
 -17 62 0 86 88 87 59 91 123 0 92 +17 92 0 141 66 82 59 88 93 0 140 -15 141 428
 0 82 142 0 17 66 0 141 112 92 63 140 121 0 143 +17 82 0 141 92 112 72 36 95 0 8
8 -17 112 0 141 82 66 69 143 104 0 0 +17 36 0 34 28 74 69 82 95 0 37 +16 95 508
 144 ?36 38 81 108 0 0 1 81 1 144 624 30 95 0 0 71 94 145 30 108 580 0 95 96 107
 0 +-1387778780781446e-32 .028 .0675 1 0 0 30 96 581 0 81 85 108 0 +-.032 .044 .
0675 0 -1 0 30 85 582 0 78 0 96 0 +-1387778780781446e-32 .06 .0675 1 0 0 80 7 CC
CCCDI12 legal_owners0 16 1 lCZ1 30 146 147 9000 0 0 0 0 3 6 0 0 0 FFTFTFTTFFFFFF
FF1 81 1 71 623 30 69 0 0 32 144 148 81 1 94 625 30 81 0 0 144 106 149 82 255 3
 145 18 0 1 81 1 106 626 30 38 0 0 94 84 150 82 3 149 18 1 1 81 1 84 627 30 78 0
 0 106 114 151 82 3 150 18 2 1 81 1 114 628 30 93 0 0 84 111 152 82 3 151 18 3 1
 81 1 111 629 30 104 0 0 114 101 153 82 3 152 18 4 1 81 1 101 630 30 49 0 0 111
 99 154 82 3 153 18 5 1 82 3 154 18 6 1 81 1 32 622 30 72 0 0 27 71 155 82 3 148
 18 3 0 82 3 155 18 2 0 79 255 9 147 BTI/DetId17 37 0 156 143 48 69 28 38 0 112
 +15 156 262 0 48 157 0 17 143 0 156 50 37 63 112 104 0 120 -17 48 0 156 37 50 1
2 41 49 0 0 +17 50 0 156 48 143 29 120 117 0 97 -17 120 0 138 140 97 63 50 117 0
 0 +14 157 275 158 ?80 142 156 6 159 -0 0 80 142 23 81 1 158 646 160 157 161 0 1
62 163 164 14 80 555 163 ?0 157 34 6 165 +0 0 0 157 23 14 142 271 162 ?157 89 14
1 6 166 +0 0 157 89 23 50 255 159 295 0 157 167 166 0 +.032 .044 .29124960595305
15 1 4336808689942015e-31 0 -4336808689942015e-31 1 0 13 23 45 0 0 0 0 0 0 10 17
 14 17 279 168 ?19 0 46 6 167 +0 0 19 0 23 81 1 168 640 160 17 169 0 0 139 170 5
0 167 296 0 17 165 159 0 +-277555756156289e-31 .06 .2912496059530515 21684043449
7101e-30 -1 0 1 216840434497101e-30 0 50 165 570 0 80 0 167 0 +-1387778780781446
e-32 .044 .0675 0 0 1 1 0 0 80 1 160 0 171 8001 0 0 0 0 3 5 0 0 0 FFFFTFTFFFFFFF
FF2 81 1 169 636 30 17 0 168 161 0 172 81 1 139 641 160 19 173 0 168 174 175 83
 255 3 170 .615686274509804 .811764705882353 .929411764705882 81 1 173 380 30 19
 0 139 116 176 177 81 1 174 642 160 134 102 0 139 178 179 83 3 175 .615686274509
804 .811764705882353 .929411764705882 14 134 1 174 ?137 19 131 6 180 +0 0 137 19
 23 81 1 102 632 30 134 0 174 99 181 182 81 1 178 643 160 137 183 0 174 184 185
 83 3 179 .615686274509804 .811764705882353 .929411764705882 14 137 89 178 ?89 1
34 136 6 20 -0 0 89 134 23 81 1 183 103 30 137 0 178 127 61 186 81 1 184 644 160
 89 187 0 178 162 188 83 3 185 .615686274509804 .811764705882353 .92941176470588
2 14 89 267 184 ?142 137 86 6 189 +0 0 142 137 23 81 1 187 634 30 89 0 184 181 1
61 190 81 1 162 645 160 142 181 0 184 158 191 83 3 188 .615686274509804 .8117647
05882353 .929411764705882 81 1 181 633 30 142 0 162 102 187 192 83 3 191 .615686
274509804 .811764705882353 .929411764705882 82 3 192 18 1 2 81 1 161 635 30 157
 0 158 187 169 193 82 3 190 18 2 2 82 3 193 18 3 2 50 189 293 0 89 166 180 0 +-.
032 .0340348360091449 .2912496059530515 1 0 0 0 0 -1 50 166 294 0 142 159 189 0
 +-1387778780781446e-32 .028 .2912496059530515 0 1 0 0 0 1 50 180 3 0 134 189 20
 0 +-.05 .00669872981077806 612323399573676e-32 -1224646799147352e-31 -250464533
092369e-46 -1 -1 -40903962394178e-29 1224646799147352e-31 50 20 90 0 137 180 7 0
 +-.025 -.0866025403784439 306161699786838e-32 -20451981197089e-29 1 0 -1 -20451
981197089e-29 0 81 1 127 100 30 126 0 0 129 183 194 81 1 61 356 30 59 0 0 183 65
 195 82 3 186 6 2 2 81 1 65 357 30 63 0 0 61 43 196 82 3 195 11 0 0 81 1 43 358
 30 67 0 0 65 40 197 82 3 196 11 1 0 82 3 197 11 2 0 82 3 194 6 2 1 82 3 182 18
 0 2 81 1 116 367 30 98 0 0 119 173 198 81 1 176 557 30 80 0 163 173 76 199 82 3
 177 11 4 2 81 1 163 647 160 80 176 0 158 0 200 81 1 76 619 30 1 0 201 176 31 20
2 82 3 199 17 2 2 81 1 201 637 203 1 76 14 0 0 204 82 3 202 6 0 3 80 1 203 205 2
06 8038 0 0 0 0 0 0 0 0 0 TTTTTTTTTTTTTFTF10 81 1 14 638 205 1 201 2 0 0 207 98
 255 6 204 80 97 114 116 32 49 80 1 205 208 209 8017 0 0 0 0 0 0 0 0 0 TTTTTTTTT
TTTTFTF3 84 255 6 207 Part 179 13 209 SDL/TYSA_NAME79 14 206 SDL/TYSA_UNAME83 3
 200 .615686274509804 .811764705882353 .929411764705882 81 1 119 366 30 117 0 0
 125 116 210 82 3 198 11 3 1 81 1 125 365 30 123 0 0 44 119 211 82 3 210 11 2 1
 81 1 44 364 30 121 0 0 40 125 212 82 3 211 11 1 1 82 3 212 11 0 1 82 3 172 18 4
 2 79 15 171 SDL/TYSA_COLOUR83 3 164 .615686274509804 .811764705882353 .92941176
4705882 81 1 24 98 30 11 0 0 51 129 213 82 3 130 6 1 1 81 1 51 97 30 42 0 0 57 2
4 214 82 3 213 6 0 1 81 1 57 96 30 53 0 0 0 51 215 82 3 214 6 1 0 82 3 215 6 0 0
 82 3 103 18 7 1 82 3 77 18 0 0 82 3 45 11 3 0 82 3 33 18 1 0 19 18 38 0 1 0 10
 6 0 S0 74 4 CI16 index_map_offset0 0 1 dCCZ20 16 5 0 0 169 201 14 2 163 0 0 0 0
 0 0 0 0 0 0 0 0 0 0 0 80 1 13 160 216 8040 0 0 0 0 3 5 0 0 0 TTTFFFFFFFFFFFFF2
 83 3 15 .615686274509804 .811764705882353 .929411764705882 79 17 216 SDL/TYSA_C
OLOUR_21 0 
