**ABCDEFGHIJKLMNOPQRSTUVWXYZabcdefghijklmnopqrstuvwxyz**************************
**PARASOLID !"#$%&'()*+,-./:;<=>?@[\]^_`{|}~0123456789**************************
**PART1;
MC=unknown;
MC_MODEL=unknown;
MC_ID=unknown;
OS=unknown;
OS_RELEASE=unknown;
FRU=Parasolid 34.0.176;
APPL=Onshape;
SITE=unknown;
USER=unknown;
FORMAT=text;
GUISE=transmit;
KEY=BTGapi::writeModels_.xmt;
FILE=BTGapi::writeModels_.xmt;
DATE=2022-02-08T18:54:39 (UTC);
**PART2;
SCH=SCH_3400176_34001;
USFLD_SIZE=0;
**PART3;
**END_OF_HEADER*****************************************************************
T51 : TRANSMIT FILE created by modeller version 340017623 SCH_3400176_34001_1300
6231 0 12 36 CCCI7 lattice222 0 CCCI4 mesh1006 0 I8 polyline1008 0 CCCCCCCDI5 ow
ner1040 0 CCCI16 boundary_lattice222 0 CCCI13 boundary_mesh1006 0 I17 boundary_p
olyline1008 0 CCCA16 index_map_offset0 0 1 dA9 index_map82 0 A17 node_id_index_m
ap82 0 A20 schema_embedding_map82 0 A5 child12 0 A14 lowest_node_id0 0 1 dA16 me
sh_offset_data206 0 Z1 126 2 3 0 0 0 0 0 0 0 1e3 1e-8 0 4 0 1 0 1 1 5 0 6 7 8 0
 0 9 10 11 0 0 0 0 0 0 0 81 255 1 2 122 12 1 13 0 0 0 14 70 11 CI9 list_type0 0
 1 uI10 notransmit0 0 1 lCCCDCCDI12 finger_index0 0 1 dI12 finger_block1012 0 CZ
3 0 4 T1 0 0 5 20 1 15 15 13 255 5 95 0 1 0 16 0 0 17 0 50 255 6 92 0 16 18 0 0
 +.025 -.0866025403784439 .005 0 1 0 0 0 1 30 255 7 94 0 10 19 0 0 +.05 -.086602
5403784439 .005 0 0 -1 29 255 8 83 0 20 21 0 -.05 -.0866025403784439 0 19 9 CCCC
CCI5 frame230 0 CA5 owner12 0 Z9 38 0 1 17 0 22 0 V0 16 255 10 86 23 ?24 0 25 7
 0 0 1 18 255 11 27 26 27 0 28 29 ?1 81 1 26 108 30 11 0 0 31 23 32 17 255 27 0
 33 34 34 11 35 36 0 37 +18 28 22 38 35 11 20 39 ?1 29 29 29 0 11 39 21 -.05 -.0
866025403784439 .005 29 39 24 0 28 0 29 .05 -.0866025403784439 .005 29 21 84 0 4
0 29 8 .05 -.0866025403784439 0 18 40 76 41 42 20 0 21 ?1 81 1 41 105 30 40 0 0
 0 38 43 17 42 0 44 45 45 40 46 47 0 24 -18 20 72 31 46 28 40 8 ?1 81 1 31 107 3
0 20 0 0 38 26 48 17 46 0 49 37 24 20 42 47 0 50 +15 255 49 87 0 46 51 0 17 37 0
 49 35 46 11 50 25 0 52 -17 24 0 49 46 35 40 53 10 0 54 +16 47 62 55 ?46 56 57 5
8 0 0 1 17 50 0 59 54 52 20 37 25 0 45 +15 59 89 0 54 16 0 17 54 0 59 53 50 40 4
5 57 0 0 +17 52 0 59 50 53 11 34 56 0 0 -16 25 85 60 ?50 10 36 19 0 0 1 17 45 0
 44 42 42 20 54 57 0 0 -15 44 61 0 45 61 0 16 57 66 62 ?54 47 0 63 0 0 1 81 1 62
 113 30 57 0 0 64 65 66 30 63 82 0 57 67 58 0 +.025 -.0866025403784439 0 1 0 0 3
1 255 67 14 0 36 68 63 0 +-1090221361294224e-32 555111512312578e-31 .005 0 0 1 1
 0 0 .1 31 58 81 0 47 63 19 0 +-1090221361294224e-32 555111512312578e-31 0 0 0 1
 1 0 0 .1 30 19 93 0 25 58 7 0 +-.05 -.0866025403784439 .005 0 0 -1 16 36 12 64
 ?27 25 56 67 0 0 1 30 68 9 0 56 0 67 0 +.025 -.0866025403784439 .005 1 0 0 16 5
6 7 65 ?34 36 47 68 0 0 1 81 1 65 114 30 56 0 0 62 69 70 17 34 0 33 27 27 28 52
 56 0 53 +15 33 6 0 34 71 0 17 53 0 59 52 54 28 24 10 0 0 -14 255 71 1 72 ?61 51
 33 5 73 +0 0 61 51 22 81 1 72 125 74 71 75 0 76 77 78 14 61 55 77 ?0 71 44 5 79
 -0 0 0 71 22 14 51 88 76 ?71 16 49 5 18 -0 0 71 16 22 50 73 3 0 71 0 79 0 +0 .0
0669872981077806 .005 0 0 1 1 0 0 13 22 39 0 0 0 0 0 0 9 16 14 16 90 80 ?51 0 59
 5 6 -0 0 51 0 22 81 1 80 123 74 16 81 0 0 76 82 80 7 CCCCCDI12 legal_owners0 16
 1 lCZ1 74 0 83 8001 0 0 0 0 3 5 0 0 0 FFFFTFTFFFFFFFFF2 81 1 81 118 30 16 0 80
 75 84 85 81 1 76 124 74 51 69 0 80 72 86 83 255 3 82 .615686274509804 .81176470
5882353 .929411764705882 81 1 69 115 30 51 0 76 65 87 88 83 3 86 .61568627450980
4 .811764705882353 .929411764705882 80 1 30 89 90 9000 0 0 0 0 3 6 0 0 0 FFTFTFT
TFFFFFFFF1 81 1 87 116 30 61 0 77 69 75 91 82 255 3 88 6 0 2 81 1 77 126 74 61 8
7 0 72 0 92 81 1 75 117 30 71 0 72 87 81 93 82 3 91 6 1 2 82 3 93 6 2 2 83 3 92
 .615686274509804 .811764705882353 .929411764705882 79 255 9 90 BTI/DetId81 1 84
 119 30 1 0 94 81 0 95 82 3 85 6 3 2 81 1 94 120 96 1 84 13 0 0 97 82 3 95 6 0 3
 80 1 96 98 99 8038 0 0 0 0 0 0 0 0 0 TTTTTTTTTTTTTFTF10 81 1 13 121 98 1 94 2 0
 0 100 98 255 6 97 80 97 114 116 32 49 80 1 98 101 102 8017 0 0 0 0 0 0 0 0 0 TT
TTTTTTTTTTTFTF3 84 255 6 100 Part 179 13 102 SDL/TYSA_NAME79 14 99 SDL/TYSA_UNAM
E79 15 83 SDL/TYSA_COLOUR50 79 80 0 61 73 18 0 +0 .00669872981077806 0 0 0 1 1 0
 0 51 255 18 91 0 51 79 6 0 --1090221361294224e-32 555111512312578e-31 .005 0 0
 -1 .1 -1 0 0 83 3 78 .615686274509804 .811764705882353 .929411764705882 82 3 70
 6 5 1 81 1 64 112 30 36 0 0 55 62 103 81 1 55 111 30 47 0 0 60 64 104 82 3 103
 6 3 1 81 1 60 110 30 25 0 0 23 55 105 82 3 104 6 2 1 81 1 23 109 30 10 0 0 26 6
0 106 82 3 105 6 1 1 82 3 106 6 0 1 82 3 66 6 4 1 17 35 0 49 24 37 28 27 36 0 34
 -81 1 38 106 30 28 0 0 41 31 107 82 3 48 6 2 0 82 3 107 6 1 0 82 3 43 6 0 0 82
 3 32 6 3 0 19 17 96 0 1 0 9 5 0 S0 74 4 CI16 index_map_offset0 0 1 dCCZ20 15 5
 0 0 84 94 13 2 77 0 0 0 0 0 0 0 0 0 0 0 0 0 0 0 80 1 12 74 108 8040 0 0 0 0 3 5
 0 0 0 TTTFFFFFFFFFFFFF2 83 3 14 .615686274509804 .811764705882353 .929411764705
882 79 17 108 SDL/TYSA_COLOUR_21 0 
