**ABCDEFGHIJKLMNOPQRSTUVWXYZabcdefghijklmnopqrstuvwxyz**************************
**PARASOLID !"#$%&'()*+,-./:;<=>?@[\]^_`{|}~0123456789**************************
**PART1;
MC=unknown;
MC_MODEL=unknown;
MC_ID=unknown;
OS=unknown;
OS_RELEASE=unknown;
FRU=Parasolid 34.0.176;
APPL=Onshape;
SITE=unknown;
USER=unknown;
FORMAT=text;
GUISE=transmit;
KEY=BTGapi::writeModels_.xmt;
FILE=BTGapi::writeModels_.xmt;
DATE=2022-02-08T19:00:50 (UTC);
**PART2;
SCH=SCH_3400176_34001;
USFLD_SIZE=0;
**PART3;
**END_OF_HEADER*****************************************************************
T51 : TRANSMIT FILE created by modeller version 340017623 SCH_3400176_34001_1300
6231 0 12 36 CCCI7 lattice222 0 CCCI4 mesh1006 0 I8 polyline1008 0 CCCCCCCDI5 ow
ner1040 0 CCCI16 boundary_lattice222 0 CCCI13 boundary_mesh1006 0 I17 boundary_p
olyline1008 0 CCCA16 index_map_offset0 0 1 dA9 index_map82 0 A17 node_id_index_m
ap82 0 A20 schema_embedding_map82 0 A5 child12 0 A14 lowest_node_id0 0 1 dA16 me
sh_offset_data206 0 Z1 689 2 3 0 0 0 0 0 0 0 1e3 1e-8 0 4 5 1 0 1 1 6 0 7 8 9 0
 0 10 11 12 0 0 0 0 0 0 0 81 255 1 2 682 13 1 14 0 0 0 15 70 11 CI9 list_type0 0
 1 uI10 notransmit0 0 1 lCCCDCCDI12 finger_index0 0 1 dI12 finger_block1012 0 CZ
3 0 4 T1 0 0 5 20 1 16 16 13 255 6 39 0 1 0 17 0 0 18 0 53 255 7 91 0 19 20 0 21
 -3198340863575325e-32 832667268468868e-31 -3961500832948935e-48 .1 -20451981197
089e-29 1 0 -1 -20451981197089e-29 1224646799147352e-31 30 255 8 566 0 11 22 0 0
 +-.05 -.0816025403784439 612323399573677e-32 -1 196455098806557e-31 12246467991
47352e-31 29 255 9 562 0 12 23 0 .0486418071599366 -.0816025403784439 -595690334
431591e-32 19 9 CCCCCCI5 frame230 0 CA5 owner12 0 Z10 46 0 1 18 0 24 0 V0 16 255
 11 564 25 ?26 0 27 8 0 0 1 18 255 12 560 28 29 0 30 9 ?1 81 1 28 679 31 12 0 0
 32 0 33 17 255 29 0 34 26 26 12 35 36 0 37 -18 30 22 38 39 12 40 23 ?1 81 1 38
 97 31 30 0 0 41 42 43 17 39 0 44 45 45 30 46 27 0 47 -18 40 57 41 48 30 49 50 ?
1 29 23 24 0 30 50 9 -.05 -.0866025403784439 612323399573677e-32 29 50 82 0 40 5
1 23 .05 -.0866025403784439 0 29 51 634 0 49 0 50 -.0486418071599365 -.081602540
3784439 595690334431591e-32 18 49 599 32 26 40 0 51 ?1 81 1 32 678 31 49 0 0 52
 28 53 17 26 0 34 29 29 49 54 11 0 35 +15 255 34 626 0 26 55 0 17 54 0 56 57 57
 12 26 11 0 0 -17 35 0 58 37 37 49 29 36 0 57 +15 58 612 0 35 59 60 17 37 0 58 3
5 35 12 57 61 0 54 -16 36 596 62 ?35 63 0 64 0 0 1 17 57 0 56 54 54 49 37 61 0 0
 +15 56 561 0 54 17 0 16 61 587 65 ?57 66 67 68 0 0 1 81 1 65 668 31 61 0 0 69 2
5 70 16 66 420 71 ?72 73 61 74 0 0 1 16 67 590 75 ?76 61 63 77 0 0 1 31 255 68 6
31 0 61 77 74 0 -287625089309537e-31 -971445146547012e-31 -3023001058294535e-48
 -1224646799147352e-31 -250464533092369e-46 -1 -1 0 1224646799147352e-31 .095 38
 12 CCCCCCCCCCCA17 intersection_data204 0 Z77 632 0 67 64 68 0 +78 79 80 81 81 8
2 38 74 464 0 66 68 83 0 +7 84 85 86 86 87 38 83 344 0 73 74 88 0 +7 78 89 90 90
 91 51 255 84 461 0 92 79 78 93 +367394039744206e-31 -.02467 .3 -122464679914735
2e-31 -250464533092369e-46 -1 .002 -1 0 1224646799147352e-31 40 255 20 85 0 1 20
 .0001228800961107698 .3486709016225495 ??-.001358849061883796 -.026137490792822
05 .0965141704843499 -.00177285113657452 -.0255957423224345 .0966525476840165 -.
00197991779632704 -.0249527110181571 .096816538558059 -.0019588803342407 -.02426
65302537674 .0969912279398458 -.001702310439732055 -.02362017183940455 .09715549
19777764 -.001241275052619542 -.0231018047813667 .097287028179955 -.000642347387
996694 -.0227759593897876 .0973696208460723 1468723994092842e-20 -.0226700539294
8135 .0973964498281092 .00065770702140775 -.02278123811082735 .0973682833966573
 .00122727912908357 -.0230908274510631 .0972898117665182 .001670972727364375 -.0
2357097764153565 .0971679827060675 .0019393440498771 -.024181180343883 .09701293
45078934 .001990844064560035 -.0248611541540384 .0968398655205579 .0018059029245
472 -.0255294850941767 .0966694579764122 .001402296378501356 -.02609603115914135
 .0965247674050964 .000837334355965259 -.0264862794873918 .0964249753440056 .000
1898400562149875 -.02666096980214575 .0963802710618834 -.000464105203799857 -.02
661540647675645 .0963919329842328 -.001061794685439004 -.026364872280136 .096456
0319611899 -.001358849061883798 -.02613749079282205 .0965141704843499 41 3 CI8 t
erm_use0 0 1 cCZ1 86 H?-.001358849061883798 -.02613749079282205 .096514170484349
9 204 2 17 INTERSECTION_DATA17 Intersection data7 uv_type0 0 1 u6 values0 1 1 fT
80 87 4 1.55671798700905 -.264446353476674 5.4593670401328 .20348582951565 1.552
45586505731 -.258837989443121 5.80195380507024 .2033474523159835 1.5503489746441
45 -.252191887408912 6.14135476793442 .203183461441941 1.550602603091215 -.24511
233386957 .203128889276 .203008772060154 1.553276614503995 -.2384550949280965 .5
52614165143951 .2028445080222235 1.558038123291965 -.2331239053047745 .901240814
883739 .202712971820045 1.56419942250122 -.229776182139954 1.243827744905938 .20
26303791539275 1.570947125308145 -.228688679611186 1.578140012772335 .2026035501
71891 1.577551062479735 -.2298303945277865 1.905885633466265 .2026317166033425 1
.583410330399725 -.233011081528338 2.231458164807115 .202710188233482 1.58799137
3890485 -.237948858758074 2.559813601673815 .2028320172939325 1.59078423651191 -
.2442326344023655 2.894681638256325 .2029870654921065 1.59135153572389 -.2512465
262939435 3.237315847803075 .203160134479442 1.58947536903808 -.258152647134887
 3.58580028741842 .203330542023588 1.58532314486797 -.2640168505800085 3.9353824
27645475 .2034752325949035 1.579479899765795 -.26806163279956 4.2804117974696 .2
035750246559945 1.57276602254918 -.2698736872628985 4.6173258359978 .20361972893
81165 1.56598159175244 -.269400973714792 4.94657633754491 .203608067015767 1.559
788702093825 -.2668028129042175 5.27204808619716 .20354396803881 1.5567179870090
5 -.264446353476674 5.45936704013281 .20348582951565 14 255 92 446 94 ?95 96 97
 6 84 -0 0 95 96 24 53 79 629 0 59 98 84 99 -287625089309537e-31 -97144514654701
2e-31 -3023001058294535e-48 .095 -196455098806557e-31 -1 2745233438853315e-47 -1
 196455098806557e-31 1224646799147352e-31 51 78 341 0 96 84 100 101 +0 .29124960
59530515 .00575841679923759 0 -1 0 .0025 0 0 -1 141 255 93 74 102 102 84 141 102
 22 93 93 84 38 22 550 0 63 103 8 0 +84 79 104 105 105 106 16 63 593 107 ?108 67
 36 22 0 0 1 31 103 92 0 27 109 22 0 +1734723475976805e-32 -.0866025403784439 0
 -20451981197089e-29 1 0 -1 -20451981197089e-29 0 .05 40 20 104 0 1 20 .00012396
2696814398 .34971258004932 ??-.001315637937026236 -.02617635215625605 .091313020
3454598 -.000756840385040556 -.0265212678443628 .0912197870232066 -.000110429311
240985 -.02666694901467685 .0911803796636967 .000537889051981236 -.0265963113371
8275 .091199489574358 .001123231174649702 -.0263247965821499 .0912729063667677 .
00159432521568717 -.02587752933986055 .0913937175213445 .001901482358898465 -.02
528997164354345 .091552180198549 .001999292480642365 -.02461680623300655 .091733
3945761492 .00186061031875651 -.02393642707128955 .0919161878468782 .00149464519
0929406 -.0233410772207417 .0920758391215015 .000953334968140059 -.0229118326477
4895 .0921907754450525 .0003151436927091035 -.0226949849486787 .0922487850469166
 -.000341572161558123 -.02269938373637875 .0922476086760361 -.000952567445992083
 -.0229114166892535 .0921908867543439 -.001464501779125612 -.023307930053581 .09
20847198570769 -.001827327147814395 -.0238570575082698 .0919374879064139 -.00199
3650166698765 -.02451075486562555 .0917619106979037 -.001929023524433515 -.02519
8079768768 .0915769383863045 -.00162965488689751 -.02582940715437285 .0914067062
693065 -.001315637937026238 -.02617635215625605 .0913130203454598 41 1 105 H?-.0
01315637937026238 -.02617635215625605 .0913130203454598 204 80 106 4 5.430308286
93588 .20868697965454 4.72679598286289 .279151973709624 5.10047794985808 .208780
2129767935 4.72068567832607 .2829309265790165 4.76763172966593 .2088196203363035
 4.71360008805562 .2845282779522 4.44009196671644 .208800510425642 4.70649110949
007 .283753663582652 4.116051860023085 .2087270936332325 4.70008330806657 .28077
78500629885 3.78980795108216 .2086062824786555 4.6949461674258 .275881330101889
 3.456770773178265 .208447819801451 4.69162258232534 .269459238818823 3.11499263
334755 .208266605423851 4.69059783199846 .2621153996030005 2.76604027641216 .208
083812153122 4.6921492784146 .254707535020112 2.41481978676064 .2079241608784985
 4.69615764385827 .2482371719081245 2.06765622856993 .2078092245549475 4.7020484
5570218 .2435786605207785 1.729027623679475 .2077512149530835 4.70897275689104 .
241227308448969 1.399168910755032 .207752391323964 4.71609173870468 .24127499241
3941 1.074372920074144 .207809113245656 4.7227211681145 .243574148832684 .749175
120730052 .207915280142923 4.72829149197141 .247877237205171 .4185885258452785 .
208062512093586 4.73226212049896 .253844309485993 .0797069393515582 .20823808930
20965 4.73411189951667 .260959770518384 6.01597696279588 .2084230616136955 4.733
4503777516 .26845588368746 5.66482044960043 .2085932937306935 4.73021570578857 .
27535491227382 5.43030828693588 .20868697965454 4.72679598286289 .27915197370962
4 16 27 87 42 ?46 11 110 103 0 0 1 31 109 14 0 110 88 103 0 +3198340863575325e-3
2 832667268468868e-31 -3961500832948935e-48 -1224646799147352e-31 -2504645330923
69e-46 -1 -1 -40903962394178e-29 1224646799147352e-31 .1 16 110 12 111 ?48 27 11
2 109 0 0 1 30 88 9 0 112 83 109 0 +-.025 -.0866025403784439 306161699786838e-32
 -1 -40903962394178e-29 1224646799147352e-31 16 112 7 113 ?47 110 73 88 0 0 1 81
 1 113 100 31 112 0 0 111 114 115 17 47 0 116 48 48 30 45 112 0 117 +16 73 304 1
18 ?119 112 66 83 0 0 1 81 1 118 348 31 73 0 0 120 71 121 17 119 0 122 119 119 0
 123 73 0 0 +15 122 294 0 119 19 124 17 123 0 125 123 123 0 119 73 0 0 -15 125 3
20 0 123 96 126 14 96 326 127 ?92 17 125 6 78 -0 0 92 17 24 15 126 556 0 128 96
 0 17 128 0 126 128 128 0 76 67 0 0 -17 76 0 129 76 76 0 128 67 0 0 +15 129 614
 0 76 59 0 14 59 619 130 ?55 19 58 6 79 +0 0 55 19 24 81 1 130 688 131 59 132 0
 133 134 135 14 55 623 134 ?0 59 34 6 98 -0 0 0 59 24 14 19 86 133 ?59 95 136 6
 7 -0 0 59 95 24 13 24 45 0 0 0 0 0 0 10 17 14 17 1 137 ?96 0 116 6 100 +0 0 96
 0 24 81 1 137 683 131 17 138 0 0 127 139 15 116 6 0 47 17 56 50 255 100 3 0 17
 78 20 0 +-.05 .00669872981077806 612323399573676e-32 -1224646799147352e-31 -250
464533092369e-46 -1 -1 -40903962394178e-29 1224646799147352e-31 50 20 90 0 95 10
0 7 0 +-.025 -.0866025403784439 306161699786838e-32 -20451981197089e-29 1 0 -1 -
20451981197089e-29 0 14 95 89 140 ?19 92 44 6 20 -0 0 19 92 24 81 1 140 686 131
 95 114 0 94 133 141 15 44 88 0 39 95 0 80 7 CCCCCDI12 legal_owners0 16 1 lCZ1 1
31 0 142 8001 0 0 0 0 3 5 0 0 0 FFFFTFTFFFFFFFFF2 81 1 114 103 31 95 0 140 113 1
20 143 81 1 94 685 131 92 52 0 127 140 144 81 1 133 687 131 19 69 0 140 130 145
 83 255 3 141 .615686274509804 .811764705882353 .929411764705882 81 1 69 489 31
 19 0 133 71 65 146 83 3 145 .615686274509804 .811764705882353 .929411764705882
 80 1 31 147 148 9000 0 0 0 0 3 6 0 0 0 FFTFTFTTFFFFFFFF1 81 1 71 484 31 66 0 0
 118 69 149 82 255 3 146 19 3 2 82 3 149 19 1 1 79 255 9 148 BTI/DetId81 1 52 67
7 31 92 0 94 150 32 151 81 1 127 684 131 96 150 0 137 94 152 83 3 144 .615686274
509804 .811764705882353 .929411764705882 81 1 150 676 31 96 0 127 138 52 153 83
 3 152 .615686274509804 .811764705882353 .929411764705882 81 1 138 675 31 17 0 1
37 154 150 155 82 3 153 24 3 2 81 1 154 674 31 55 0 134 132 138 156 82 3 155 24
 2 2 81 1 134 689 131 55 154 0 130 0 157 81 1 132 673 31 59 0 130 62 154 158 82
 3 156 24 1 2 81 1 62 672 31 36 0 0 107 132 159 82 3 158 24 0 2 81 1 107 671 31
 63 0 0 75 62 160 82 3 159 24 4 1 81 1 75 670 31 67 0 0 25 107 161 82 3 160 24 3
 1 81 1 25 669 31 11 0 0 65 75 162 82 3 161 24 2 1 82 3 162 24 1 1 83 3 157 .615
686274509804 .811764705882353 .929411764705882 82 3 151 24 4 2 81 1 120 104 31 1
 0 163 114 118 164 82 3 143 6 2 2 81 1 163 680 165 1 120 14 0 0 166 82 3 164 6 0
 3 80 1 165 167 168 8038 0 0 0 0 0 0 0 0 0 TTTTTTTTTTTTTFTF10 81 1 14 681 167 1
 163 2 0 0 169 98 255 6 166 80 97 114 116 32 49 80 1 167 170 171 8017 0 0 0 0 0
 0 0 0 0 TTTTTTTTTTTTTFTF3 84 255 6 169 Part 179 13 171 SDL/TYSA_NAME79 14 168 S
DL/TYSA_UNAME79 15 142 SDL/TYSA_COLOUR83 3 139 .615686274509804 .811764705882353
 .929411764705882 15 136 408 0 72 19 122 17 72 0 136 72 72 0 172 66 0 0 +17 172
 0 97 172 172 0 72 66 0 0 -15 97 441 0 172 92 173 15 173 549 0 174 92 0 17 174 0
 173 174 174 0 108 63 0 0 -17 108 0 60 108 108 0 174 63 0 0 +15 60 613 0 108 59
 129 50 98 630 0 55 0 79 0 +.0243209035799683 -.0816025403784439 -29784516721579
55e-33 -196455098806557e-31 -1 2745233438853315e-47 1 -196455098806557e-31 0 83
 3 135 .615686274509804 .811764705882353 .929411764705882 15 124 85 0 46 19 0 17
 46 0 124 117 117 40 39 27 0 0 +17 117 0 124 46 46 30 48 110 0 0 -17 48 0 116 47
 47 40 117 110 0 45 +17 45 0 44 39 39 40 47 112 0 46 -82 3 121 14 0 1 81 1 111 9
9 31 110 0 0 42 113 175 82 3 115 6 2 1 81 1 42 98 31 27 0 0 38 111 176 82 3 175
 6 1 1 82 3 176 6 0 1 141 101 83 177 177 78 141 177 77 101 101 78 141 99 22 178
 178 79 141 178 77 99 99 79 40 20 89 0 1 20 .0001415531022391678 .33792276542817
75 ??-.001787443094771165 .0999035562737821 .004010547472581655 -.00110879733604
1496 .0999319567165721 .00351775429283747 -.0003049583755205735 .099945823849241
2 .003277086432438395 .000532572715223453 .0999435932032447 .00331580215443594 .
00130973198188135 .0999255486775486 .003628956272334795 .00193985709854383 .0998
937073865762 .004181408734188745 .00235227395129056 .0998515963926542 .004911772
09330723 .002499920618660065 .0998039081322105 .00573849443998253 .0023651784617
2331 .0997560183817703 .00656831237534612 .001962770550995265 .0997133792977234
 .00730681331310145 .00133854767158738 .099680856885407 .00786988314537906 .0005
63867948960537 .0996621315209456 .00819399741505285 -.000273375812233209 .099659
2755855759 .00824342498137419 -.001079186909582298 .0996725605768804 .0080134901
0496098 -.00176368574411076 .0997004747420449 .00753025556053064 -.0022503315994
34635 .0997399034778591 .00684745660226867 -.0024839616843793 .0997864445721414
 .00604114343493991 -.002437288912488225 .0998348588156521 .0052019792402411 -.0
02114866741848975 .0998796501672453 .004425248143657555 -.001787443094752925 .09
99035562738039 .004010547472594415 41 1 90 H?-.001787443094752925 .0999035562738
039 .004010547472594415 204 80 91 4 1.151536079589454 1.526873842232945 5.486593
75812709 .1913460496792695 1.265453260350442 1.53390432188619 5.82366420954002 .
1913176492364795 1.478005782573072 1.53787792974261 6.16089739575547 .1913037821
038105 1.73005269512034 1.537207012889705 .214674167263717 .191306012749807 1.91
715857865157 1.5322060268172 .551414724454077 .191324057275503 2.005169173696935
 1.52468527628364 .888208388916102 .1913558985664755 2.01742625502465 1.51630957
0985775 1.225306200564344 .1913980095603975 1.9816449471649 1.50816151410683 1.5
62827298747075 .1914456978208415 1.91643088638465 1.500927750947655 1.9007066937
56315 .1914935875712815 1.83322331442613 1.495065523805834 2.238721816108835 .19
15362266553285 1.739268921994525 1.490882246297206 2.57658880245122 .19156874906
76445 1.639502768930835 1.488569943051512 2.914088001795605 .191587474432106 1.5
37645584061725 1.488222955910006 3.25116208549714 .191590330367476 1.43693045657
902 1.489849643897088 3.587941269774605 .1915770453761715 1.340730057900604 1.49
337864107192 3.924684793448745 .191549131211007 1.25327788277181 1.4986562754026
6 4.261666560757615 .1915097024751925 1.18069437789526 1.50543097189758 4.599055
86599095 .1914631613809105 1.132639271047064 1.51331821669034 4.93684393665063 .
1914147471373995 1.124977032670662 1.521730252845115 5.27484735628933 .191369955
7858065 1.151536079594432 1.52687384223291 5.48659375812854 .191346049679248 31
 64 633 0 36 0 77 0 +1734723475976805e-32 -.0816025403784439 418821056722465e-48
 -196455098806557e-31 -1 2745233438853315e-47 1 -196455098806557e-31 0 .04864180
71599366 40 20 80 0 1 20 .0001416300488634122 .3379976659505555 ??-.001797573746
492765 .0948978426781302 .004020967909263055 -.00227172136140582 .09485573573974
01 .00471473003773658 -.002489170843276745 .0948064745295191 .00552597645639465
 -.00242549999440233 .0947555494687353 .00636418059574107 -.00208728741797217 .0
947087328538068 .00713436419458928 -.00151294155276095 .0946713764038974 .007748
64489117311 -.000768256860219529 .0946477244787456 .00813744630656314 6198746034
09708e-19 .0946404110509421 .00825764819203828 .00088436169644585 .0946501991008
901 .00809677185992864 .00160715123627877 .0946759546085537 .00767337499818806 .
00214975289048114 .0947148003858475 .00703456824396035 .00245093335090949 .09476
24096214491 .00625129174219937 .00247578887848741 .094813437760228 .005411329736
44491 .002220568718504765 .0948620990240302 .00460990708382457 .0017139908203009
7 .0949028490222251 .00393846200091869 .001014058456657116 .0949310684711913 .00
347331604730516 .000200679888896498 .0949436138342223 .003266484299711875 -.0006
34278359326629 .0949391417820607 .00334021685653436 -.001397497269101136 .094918
19700109 .003685495820798025 -.001797573744371665 .0948978426819023 .00402096791
2638155 41 1 81 H?-.001797573744371665 .0948978426819023 .004020967912638155 204
 80 82 4 5.48078044651409 .1963517632749215 5.13278698661545 -1.524416741396165
 5.14305346554107 .1963938702133115 5.16139917155922 -1.51567907614849 4.8054995
9764784 .1964431314235325 5.13561627383657 -1.50695586583337 4.46764749851228 .1
964940564843165 5.07651203920123 -1.499043030379642 4.129570922076175 .196540873
099245 4.99701365438779 -1.492469601631524 3.79158036269031 .1965782295491545 4.
90521540547621 -1.487595462263534 3.453949976060495 .196601881474306 4.806520038
61104 -1.484651595134128 3.1167951281271 .1966091949021095 4.7048824489117 -1.48
3761424200384 2.78002102632031 .1965994068521615 4.60359625460077 -1.48495488446
8526 2.443365804611865 .196573651344498 4.50592825270325 -1.488177381697908 2.10
6516649217545 .196534805567204 4.41580397414065 -1.493290139851816 1.76924631417
574 .1964871963316025 4.338738917613005 -1.500057447689045 1.431511578715848 .19
64361681928235 4.283299459019605 -1.50811529063036 1.093472372280974 .1963875069
290215 4.263492399150675 -1.516908655812565 .755422535590509 .1963467569308265 4
.30191660371445 -1.52556765849121 .417660735350148 .1963185374818605 4.428327447
293755 -1.532699534145095 .0803584130401601 .1963059921188295 4.65103005149182 -
1.536340636086265 6.02667008465453 .196310464170991 4.90004608097263 -1.53500020
32739 5.69000734429211 .1963314089519615 5.07482660801567 -1.52929433153918 5.48
078044613302 .1963517632711495 5.13278698586307 -1.52441674137471 82 3 70 24 0 1
 82 3 53 24 0 0 81 1 41 96 31 40 0 0 0 38 179 82 3 179 6 0 0 82 3 43 6 1 0 82 3
 33 24 1 0 19 18 38 0 1 0 10 6 0 S0 141 21 83 180 180 7 141 180 74 21 21 7 74 4
 CI16 index_map_offset0 0 1 dCCZ20 16 5 0 0 28 163 14 2 134 0 0 0 0 0 0 0 0 0 0
 0 0 0 0 0 80 1 13 131 181 8040 0 0 0 0 3 5 0 0 0 TTTFFFFFFFFFFFFF2 83 3 15 .615
686274509804 .811764705882353 .929411764705882 79 17 181 SDL/TYSA_COLOUR_21 0 
